<svg xmlns="http://www.w3.org/2000/svg" width="593.545" height="550.534" viewBox="0 0 593.545 550.534"><defs><style>.a{fill:none;stroke:#49b1e5;stroke-miterlimit:10;stroke-width:1.481px;}.b{fill:#fff;}.c{fill:#32494f;}.d{fill:#f6d7b9;}.e{fill:#49b1e5;}.f{fill:#202237;}.g{fill:#23363a;}.h{fill:#3596bc;}.i{fill:#1f2f33;}.j{fill:#f1f2f2;}.k{fill:#e6e7e8;}</style></defs><g transform="translate(-87.53 -337.536)"><path class="a" d="M584.264,883.449c-7.174,0-7.174-7.033-14.348-7.033s-7.173,7.033-14.348,7.033-7.172-7.033-14.345-7.033-7.173,7.033-14.347,7.033-7.172-7.033-14.345-7.033-7.172,7.033-14.345,7.033h-.018c-7.173,0-7.173-7.033-14.348-7.033s-7.173,7.033-14.347,7.033-7.173-7.033-14.346-7.033-7.173,7.033-14.346,7.033-7.172-7.033-14.346-7.033-7.172,7.033-14.345,7.033-7.173-7.033-14.346-7.033" transform="translate(2.234 3.88)"/><g transform="translate(87.53 337.536)"><rect class="b" width="289.048" height="504.081" rx="23.296" transform="translate(188.919)"/><path class="c" d="M23.3,0H265.752a23.3,23.3,0,0,1,23.3,23.3V39.811a0,0,0,0,1,0,0H0a0,0,0,0,1,0,0V23.3A23.3,23.3,0,0,1,23.3,0Z" transform="translate(188.919)"/><g transform="translate(467.19 150.238)"><g transform="translate(28.066 140.397)"><path class="d" d="M623.328,626.094c19.234.733,9.583,18.58,5.824,34.3-6.829,24.688-3.328,56.8-13.332,60.223-26.674,7.848-17.273-86.619-9.853-90.879C609.453,627.787,616.864,626.7,623.328,626.094Z" transform="translate(-579.109 -626.094)"/><g transform="translate(0 84.866)"><path class="d" d="M605.13,711.682c18.784-13.24,16.5,76.174,11.3,101.269s-10.341,7.994-13.663-32.2S597.739,716.892,605.13,711.682Z" transform="translate(-579.096 -710.353)"/><path class="d" d="M619.257,809.74l.517,9.385-15.371.37.443-9.089Z" transform="translate(-579.064 -709.637)"/><path class="c" d="M604.253,819.239s-2.921,5.642-12.588,13-12.2,5.768-12.419,8.509,42.262.362,42.262.362l-1.331-22.537S604.258,818.651,604.253,819.239Z" transform="translate(-579.245 -709.574)"/></g><g transform="translate(52.527 0.012)"><path class="d" d="M643.636,626.559c18.878-3.757,18.663,16.592,18.661,32.752-.9,25.6,4.941,55.269-3.994,60.924-24.118,13.834-30.963-83.275-24.737-89.143C636.506,628.387,637.489,628.649,643.636,626.559Z" transform="translate(-631.397 -626.106)"/><g transform="translate(11.713 84.854)"><path class="d" d="M648.228,711.682c18.785-13.24,16.5,76.174,11.3,101.269s-10.342,7.994-13.663-32.2S640.838,716.892,648.228,711.682Z" transform="translate(-643.026 -710.353)"/><path class="d" d="M661.825,812.545l.047,9.2-14.743.111.222-9.034Z" transform="translate(-642.997 -709.617)"/></g><path class="c" d="M662.028,821.553c.191,3.636,3.981,16.061,4.066,19.213-23.434.593-22.774,5.307-18.993-19.14Z" transform="translate(-631.298 -624.698)"/></g></g><path class="c" d="M659.148,627.268s6.15,10.661,5.6,44.888c-.626,39.137-.274,48.321-.274,51.2s-.205,92.277-.205,92.277-14.646,3-18.176-.033c-1.847-1.589-15.845-142.352-15.845-142.352s-3.159,33.351-4.107,46c-.822,10.952-1.046,86.219-5,93.918-4.08,3.3-18.9,1.58-19.1,1.369-2.191-2.328-8.008-156.964-.909-185.2Z" transform="translate(-551.046 -485.688)"/><g transform="translate(43.986 46.717)"><path class="d" d="M614.489,542.9c10.512,6.866-3.745,70.3-11.875,66.888C588.327,610.754,595.4,535.277,614.489,542.9Z" transform="translate(-595.052 -533.016)"/><path class="e" d="M626.622,533.083c-29.349,3.391-28.8,29.13-31.365,47.455l20.54,3Z" transform="translate(-595.051 -533.083)"/></g><g transform="translate(12.817 68.549)"><path class="d" d="M602.152,611.07c-12.3-2.214-40.675-53-37.85-55.949C566.517,549.505,626.405,611.249,602.152,611.07Z" transform="translate(-564.106 -554.76)"/></g><path class="e" d="M644.938,531.079c39.266,5.392,11.523,27.857,15.522,97.657,0,4.989-60.124,6.772-59.787,1.588,7.073-54.953-11.516-91.234,25.976-97.583" transform="translate(-551.025 -486.381)"/><path class="d" d="M626.477,527.949v10.38c.742,9.553,15.806-.606,17.513-4.507,1.183-2.513-.517-3.8-.517-9.124v-5.907c18.14-28.21-11.534-40.054-23.132-20.027C620.148,515.183,615.724,530.632,626.477,527.949Z" transform="translate(-550.891 -486.685)"/><path class="f" d="M643.492,518.8c-.41-.106,2.473-10.272.213-10.378-1.776-.092-2.564,2.807-2.9,5.554-.911-.258-2.018-.532-2.519-.653,8.22-30.348-24.466,3.559-20.226-22.669,6.282-6.282,11.972-3.323,20.985-2.807C655.94,487.414,649.236,515.611,643.492,518.8Z" transform="translate(-550.903 -486.7)"/><path class="d" d="M663.838,543.047c11.626,3.765,15.672,69.9,7.165,68.775C657.832,616.375,643.962,540.759,663.838,543.047Z" transform="translate(-550.642 -486.295)"/><g transform="translate(51.723 80.185)"><path class="d" d="M673,611.11a6.354,6.354,0,0,1-5.913,1.968c-16.963-2.914-68.474-44.22-64.084-46.608C605.189,563.679,683.734,598.509,673,611.11Z" transform="translate(-602.734 -566.312)"/></g><path class="e" d="M644.255,531.071s21.076,1.093,25.176,7.888,7.636,36.68,7.636,36.68l-22.909,2.328-2.217-13.3" transform="translate(-550.711 -486.381)"/><path class="c" d="M573.473,534.382l23.157,38.087-22.293,2.794L551.38,536.334Z" transform="translate(-551.38 -486.357)"/><path class="d" d="M561.808,556.092a2.2,2.2,0,0,1,1.837-2.265c3.389-.563,10.33-1.2,11.638,2.729,1.747,5.237-4.774,10.782-8.06,8.42C564.885,563.295,561.928,558.9,561.808,556.092Z" transform="translate(-551.305 -486.22)"/><path class="d" d="M601.3,561.045c-.608,2.456-3.8,4.1-1.268,8.806s11.083,5.943,11.083,5.943l3.686-6.482a11.334,11.334,0,0,1-1.631-3.065,11.713,11.713,0,0,0-6.118-7.418c-4.25-1.959-10.922-4-11.768-2.76S601.778,559.118,601.3,561.045Z" transform="translate(-551.064 -486.204)"/><path class="d" d="M614.677,569.214l46.75,21.3-.1,11.7-48.844-29.455Z" transform="translate(-550.94 -486.106)"/></g><g transform="translate(0 253.344)"><path class="c" d="M96.781,759.059c4.422,18.427,7.938,38.933,21.526,53.184,17.634,18.5,44.3,22.774,68.494,23.983,27.329,1.361,55.093-.681,82.157,1.361,19.127,1.455,45.719,6.86,58.438-12.209a25.676,25.676,0,0,0-7.03-31.657,63.033,63.033,0,0,0-4.707-4.555,66.062,66.062,0,0,0-5.234-4.12c-9.488-10.7-22.718-14.477-35.948-15.875-1.833-.227-3.685-.435-5.538-.605-12.984-1.171-26.46-.888-39.444-3.383a25.087,25.087,0,0,1-11.906-8.542c-3.251-4.233-5.274-9.261-7.2-14.232-6.275-16.216-11.869-32.7-18.862-48.63-3.988-9.072-8.165-20.147-13.967-29.332a51.08,51.08,0,0,0-8.6-10.641c-13.419-12.266-35.7-11.85-51.767-5.783-17.671,6.691-27.915,24.626-29.314,42.713C86.1,713.85,91.432,736.739,96.781,759.059Z" transform="translate(-87.53 -588.674)"/><path class="g" d="M176.7,723.3c-2.374,15.541-12.522,29.6-11.385,45.723,1.081,15.333,13.538,26.962,27.259,32.174,18.489,7.024,39.34,3.7,58.6,3.617,20.659-.085,41.2,1.308,60.281,9.867,1.66.744,16.65,7.642,16.953,6.653a26.073,26.073,0,0,0-8.6-27.763,63.033,63.033,0,0,0-4.707-4.555,66.062,66.062,0,0,0-5.234-4.12c-9.488-10.7-22.718-14.477-35.948-15.875-1.833-.227-3.685-.435-5.538-.605-12.984-1.171-26.46-.888-39.444-3.383a25.087,25.087,0,0,1-11.906-8.542c-3.251-4.233-5.274-9.261-7.2-14.232-6.275-16.216-11.869-32.7-18.862-48.63C186.979,684.56,182.8,673.485,177,664.3c-3.931,1.663-8.127,4.574-8.884,8.354-.85,4.271,3.685,10.092,5.065,14A75.969,75.969,0,0,1,176.7,723.3Z" transform="translate(-86.971 -588.527)"/><g transform="translate(71.495)"><g transform="translate(40.669 131.051)"><path class="d" d="M249.874,735.61c30.287-10.93,56.755-14.735,59.119-8.5s-20.273,20.149-50.559,31.078-56.755,14.736-59.118,8.5S219.588,746.539,249.874,735.61Z" transform="translate(-198.89 -719.148)"/><g transform="translate(100.241 5.23)"><path class="d" d="M299.677,726.655c12.255-16.827,42.09,64.295,45.865,86.331s-8.457,1.956-24.854-29.556S294.856,733.275,299.677,726.655Z" transform="translate(-298.416 -724.376)"/><path class="d" d="M332.516,809.793l4.834,9.585,9.8-2.309-2.927-10.1Z" transform="translate(-298.171 -723.781)"/><path class="c" d="M347.128,817.066s3.259,3.26,11.247,6.584,9.446,1.772,10.093,3.62-27.6,7.5-27.6,7.5l-3.647-15.638S347.019,816.662,347.128,817.066Z" transform="translate(-298.137 -723.708)"/></g><path class="h" d="M223.46,741.737s61.133-29.092,83.286-21.195c18.63,6.64,41.269,86.4,41.269,86.4l-15.584,5.361L298.767,748.72s-37.142,17.793-71.816,27.928-27.429-22.193-27.429-22.193Z" transform="translate(-198.892 -719.183)"/></g><g transform="translate(23.927 166.254)"><path class="d" d="M241.842,755.941c32.084,3.76,57.44,12.155,56.633,18.751s-27.47,8.895-59.554,5.135-57.44-12.155-56.633-18.751S209.758,752.181,241.842,755.941Z" transform="translate(-182.269 -754.134)"/><g transform="translate(106.67 12.941)"><path class="d" d="M288.177,772.036c-.008-20.8,71.943,28.311,87.986,44.145s-5.687,6.463-37.524-9.847S288.18,780.219,288.177,772.036Z" transform="translate(-288.177 -766.983)"/></g><path class="d" d="M366.161,822.286l10.054,3.765,5.633-8.341-9.7-5.769Z" transform="translate(-180.945 -753.718)"/><path class="c" d="M381.835,817.759s4.606.185,12.73-2.79,8.142-5.105,9.872-4.186-15.2,24.234-15.2,24.234L375.955,826S381.48,817.538,381.835,817.759Z" transform="translate(-180.875 -753.728)"/></g><path class="h" d="M182.046,753.585s-13.973,35.555,30.391,38.386,71.739.315,74.256.315,81.116,31.742,81.116,31.742l7.73-13.3s-61.472-44.872-81.924-48.962S231,754.53,231,754.53Z" transform="translate(-158.359 -587.885)"/><path class="d" d="M229.132,649.209a7.867,7.867,0,0,0-2.7,7.826c2.582,13,13.034,64.984,22.706,63.623,11.371-1.6-.3-48.157-4.757-58.741C240.671,653.1,234.845,644.881,229.132,649.209Z" transform="translate(-158.026 -588.645)"/><path class="d" d="M236.764,698.853,246.115,740l15.211-2.369-9.974-51.368Z" transform="translate(-157.95 -588.369)"/><path class="e" d="M251.958,687.035,233.464,698.79l-11.128-40.28,12.793-10.4s6.347,4.056,10.285,15.575S251.958,687.035,251.958,687.035Z" transform="translate(-158.054 -588.644)"/><path class="d" d="M202.117,631.235l-.794,12.671,16.665.795-.881-5.391-.515-3.113a12.82,12.82,0,0,0,4.251-.216c4.918-1.159,11.382-15.742,9.3-28.992-2.062-13.293-22.185-11.4-30-2.791S202.117,631.235,202.117,631.235Z" transform="translate(-158.236 -589.009)"/><path class="d" d="M175.852,666.452c3.187,18.607,12.109,41.4,11.879,56.2s-5.863,31.736-4.231,32.424c1.632.739,56.18,1.886,58.754-.459,2.6-2.345-8.436-21.87-9.15-36.451-.714-14.555,9.508-20.8,11.292-38.439,1.733-17.614-6.6-29.62-10.807-32.551-4.257-2.932-14.81-3.059-14.81-3.059L199,643.18s-14.351-.358-21.131,6.474C174.4,653.121,174.425,658.168,175.852,666.452Z" transform="translate(-158.396 -588.68)"/><path class="d" d="M217.024,639.051l-9.552-6.111c2.751,1.571,9.038,2.994,9.038,2.994Z" transform="translate(-158.161 -588.753)"/><path class="d" d="M185.568,649.759a7.867,7.867,0,0,1,2.407,7.92c-3.062,12.892-15.429,64.458-25.044,62.741-11.3-2.019,2.084-48.114,6.927-58.526C173.894,653.217,180.02,645.222,185.568,649.759Z" transform="translate(-158.514 -588.642)"/><path class="e" d="M237.581,700.812s-3.588,6.619-3.47,17.1c.1,10.459,10.459,33.855,9.28,37.256-.91,2.662-36.6,2.039-53.141,1.179-4.716-.236-7.882-.506-8.219-.707-1.533-.944,3.166-21.862,4.463-32.441.589-4.833-.589-12.227-2.021-18.831-1.5-6.788-3.4-13.609-3.907-15.344-.034-.135-.067-.253-.085-.32v-.033a.779.779,0,0,0-.033-.085l-1.365,3.806-18.089-4.463c5.39-22.907,10.678-31.851,15.748-37.848,5.053-6,16.019-6.585,16.019-6.585s6.822,14.5,22.1,13.946c15.294-.539,8.187-13.255,8.187-13.255s6.77-.034,10.526,2.374c3.757,2.392,7.175,7.63,9.349,14.047,2.173,6.4,3.049,11.925,1.987,21.223C244.115,688.836,239.651,696.2,237.581,700.812Z" transform="translate(-158.496 -588.677)"/><g transform="translate(0.33 119.03)"><path class="d" d="M158.846,713.669a8.955,8.955,0,0,0,4.816,7.306c12.647,7.033,57.926,31.749,62.887,27.937,5.774-4.437-58.2-43.288-61.68-41.61C162.255,708.56,158.7,709.444,158.846,713.669Z" transform="translate(-158.842 -707.249)"/><path class="d" d="M228.073,745.212a29.821,29.821,0,0,0-3.8-2.77c-2.824-1.743-6.211-2.946-7.888-.223-1.645,2.656-1.325,4.491.072,7.218,1.364,2.726,6.724,7.52,7.981,6.238,1.291-1.283-2.224-5.325-1.657-5.431a1.22,1.22,0,0,1,.2.065c1.311.755,8.36,7.3,9.516,5.921C233.681,754.747,231.746,748.317,228.073,745.212Z" transform="translate(-158.436 -707.008)"/></g><g transform="translate(51.24 127.498)"><rect class="i" width="66.636" height="3.252" transform="translate(0 39.018)"/><path class="i" d="M293.283,757.925H231.276l17.494-42.27h62.007Z" transform="translate(-209.23 -715.656)"/><path class="c" d="M295.02,757.925H233.013l17.494-42.27h62.007Z" transform="translate(-209.217 -715.656)"/><path class="b" d="M277.461,738.772c-1.12,2.792-3.528,4.453-5.378,3.711s-2.44-3.607-1.32-6.4,3.527-4.454,5.377-3.712S278.581,735.98,277.461,738.772Z" transform="translate(-208.95 -715.536)"/></g><path class="f" d="M226.714,596.5c-.549-2.345-2.654-3.817-4.627-4.941-6.53-3.722-14.831-3.093-21.184.693-7.51,4.473-10.757,12.932-12.9,21-.108.406-.208.819-.305,1.239-1.09,4.717-1.635,10.219-4.848,13.919-2.142,2.468-5.022,4.21-6.884,6.937-2.686,3.929-1.643,8.853-1.089,13.248.706,5.6,1.692,11.362.72,16.993-.453,2.628-2.1,6.344.193,8.561a5.848,5.848,0,0,0,3.808,1.213c14.016.867,37.062-5.337,31.967-23.818-1.149-4.168-4.177-7.462-6.134-11.238a41.539,41.539,0,0,1-3.076-8.859c-.085-.743-1.477-14.247,7.7-17.611a66.381,66.381,0,0,0,8.264-3.65,33.61,33.61,0,0,0,8.13-6.128c4.089,1.022,4.43,7.221,4.43,7.221C233.078,601.366,226.714,596.5,226.714,596.5Z" transform="translate(-158.401 -589.069)"/></g></g><g transform="translate(212.464 62.477)"><rect class="c" width="118.848" height="27.964" rx="13.882" transform="translate(177.717 302.74) rotate(-180)"/><path class="j" d="M311.34,580.18H527.568a12.9,12.9,0,0,0,12.865-12.865h0a12.9,12.9,0,0,0-12.865-12.865H311.34a12.9,12.9,0,0,0-12.864,12.865h0A12.9,12.9,0,0,0,311.34,580.18Z" transform="translate(-298.476 -398.452)"/><rect class="j" width="241.957" height="25.73" rx="12.773" transform="translate(241.957 223.164) rotate(180)"/><g transform="translate(64.484 206.909)"><circle class="e" cx="4.529" cy="4.529" r="4.529" transform="translate(124.233 0)"/><circle class="e" cx="4.529" cy="4.529" r="4.529" transform="translate(108.704 0)"/><circle class="e" cx="4.529" cy="4.529" r="4.529" transform="translate(93.175 0)"/><circle class="e" cx="4.529" cy="4.529" r="4.529" transform="translate(77.646 0)"/><circle class="e" cx="4.529" cy="4.529" r="4.529" transform="translate(62.116 0)"/><circle class="e" cx="4.529" cy="4.529" r="4.529" transform="translate(46.587 0)"/><circle class="e" cx="4.529" cy="4.529" r="4.529" transform="translate(31.058)"/><circle class="e" cx="4.529" cy="4.529" r="4.529" transform="translate(15.529 0)"/><circle class="e" cx="4.529" cy="4.529" r="4.529" transform="translate(0 0)"/></g><g transform="translate(50.612)"><circle class="k" cx="49.705" cy="49.705" r="49.705" transform="translate(0 70.294) rotate(-45)"/><g transform="translate(42.662 36.935)"><g transform="translate(12.006)"><path class="e" d="M418.557,467.6a15.7,15.7,0,0,1-12.194-5.973,15.307,15.307,0,0,1-3.36-9.706,15.617,15.617,0,1,1,31.233,0,15.283,15.283,0,0,1-3.36,9.706A15.755,15.755,0,0,1,418.557,467.6Z" transform="translate(-403.003 -436.238)"/></g><path class="e" d="M391.093,495.279c0,9.895,55.254,9.895,55.254,0l-.018-11.529c-2.184-15.764-50.745-16.425-55.246,0Z" transform="translate(-391.083 -435.983)"/></g></g><path class="c" d="M514.488,606.048v9.123c0,1.576,11.693,1.576,11.693,0v-9.123h-.768v-.69a5.062,5.062,0,0,0-10.124,0v.69Zm9.12,0h-6.551v-.69a3.276,3.276,0,1,1,6.551,0Zm-4.862,3.243a1.622,1.622,0,0,1,3.243,0,1.538,1.538,0,0,1-.812,1.353v2.635a.779.779,0,0,1-.81.811.838.838,0,0,1-.879-.811v-2.635A1.63,1.63,0,0,1,518.746,609.291Z" transform="translate(-296.92 -398.121)"/><g transform="translate(81.407 161.312)"><g transform="translate(136.195)"><g transform="translate(2.533)"><path class="c" d="M520.319,566.343a3.315,3.315,0,0,1-2.573-1.26,3.232,3.232,0,0,1-.709-2.049,3.3,3.3,0,1,1,6.591,0,3.227,3.227,0,0,1-.709,2.049A3.326,3.326,0,0,1,520.319,566.343Z" transform="translate(-517.037 -559.726)"/></g><path class="c" d="M514.524,572.186c0,2.088,11.72,2.088,11.72,0l-.064-2.433c-.46-3.327-10.708-3.466-11.657,0Z" transform="translate(-514.522 -559.672)"/></g><path class="e" d="M445.125,571.025H492.51a3.787,3.787,0,0,0,3.776-3.775h0a3.786,3.786,0,0,0-3.776-3.775H445.125a3.786,3.786,0,0,0-3.775,3.775h0A3.787,3.787,0,0,0,445.125,571.025Z" transform="translate(-378.854 -559.699)"/><path class="e" d="M383.076,571.025h47.385a3.786,3.786,0,0,0,3.775-3.775h0a3.785,3.785,0,0,0-3.775-3.775H383.076a3.785,3.785,0,0,0-3.775,3.775h0A3.786,3.786,0,0,0,383.076,571.025Z" transform="translate(-379.301 -559.699)"/></g></g><g transform="translate(62.347 98.044)"><path class="e" d="M297,435.171l-140.171-.292a7.241,7.241,0,0,0-7.235,7.2l-.165,79.419a7.241,7.241,0,0,0,7.2,7.236l140.171.292a7.241,7.241,0,0,0,7.235-7.2l.165-79.42A7.24,7.24,0,0,0,297,435.171Z" transform="translate(-149.432 -434.879)"/><g transform="translate(73.376 30.963)"><path class="b" d="M288.579,465.621H224.985a2.71,2.71,0,0,0-2.7,2.7h0a2.71,2.71,0,0,0,2.7,2.7h63.594a2.71,2.71,0,0,0,2.7-2.7h0A2.71,2.71,0,0,0,288.579,465.621Z" transform="translate(-222.283 -465.621)"/><path class="b" d="M274.257,478.857H224.985a2.71,2.71,0,0,0-2.7,2.7h0a2.71,2.71,0,0,0,2.7,2.7h49.271a2.71,2.71,0,0,0,2.7-2.7h0A2.71,2.71,0,0,0,274.257,478.857Z" transform="translate(-222.283 -465.526)"/><rect class="b" width="47.921" height="5.404" rx="2.683" transform="translate(0 26.032)"/></g><g transform="translate(17.434 22.672)"><g transform="translate(9.177)"><path class="b" d="M196.241,467.932a10.2,10.2,0,1,1-10.195-10.543A10.373,10.373,0,0,1,196.241,467.932Z" transform="translate(-175.852 -457.389)"/></g><path class="b" d="M199.092,485.889l-6.147-2a22.071,22.071,0,0,0-13.624-.007l-6.189,2.006a9.239,9.239,0,0,0-6.391,8.79v9.939h38.742v-9.94A9.24,9.24,0,0,0,199.092,485.889Z" transform="translate(-166.741 -457.206)"/></g></g><g transform="translate(444.123 70.774)"><path class="c" d="M589.434,407.8H548.428a20.008,20.008,0,0,0-19.95,19.95V446.04a20.008,20.008,0,0,0,19.95,19.949h41.006a19.748,19.748,0,0,0,4.9-.639L609.383,480.4V427.754A20.008,20.008,0,0,0,589.434,407.8Z" transform="translate(-528.478 -407.804)"/><g transform="translate(17.83 24.173)"><path class="b" d="M554.417,435.921A4.118,4.118,0,1,1,550.3,431.8,4.118,4.118,0,0,1,554.417,435.921Z" transform="translate(-546.181 -431.804)"/><path class="b" d="M571.867,435.921a4.117,4.117,0,1,1-4.117-4.117A4.117,4.117,0,0,1,571.867,435.921Z" transform="translate(-546.055 -431.804)"/><path class="b" d="M588.663,435.921a4.117,4.117,0,1,1-4.117-4.117A4.117,4.117,0,0,1,588.663,435.921Z" transform="translate(-545.934 -431.804)"/></g></g></g></g></svg>